<svg viewBox="0 0 81.3299 105.49" xmlns="http://www.w3.org/2000/svg" xmlns:xlink="http://www.w3.org/1999/xlink" width="81.329880" height="105.489998" fill="none" customFrame="#000000">
	<rect id="Cat Icon" width="81.329880" height="105.489998" x="0.000000" y="0.000000" fill="rgb(255,255,255)" fill-opacity="0" />
	<path id="path" d="M27.5099 0L32.2299 0.75C37.1499 1.81 43.5399 5.06 46.4699 9.24C47.8199 11.17 49.4499 15.09 46.9199 16.73C44.0599 18.57 40.6999 14.54 38.4299 13.21C34.4999 10.89 27.1499 10.17 22.8999 11.79C18.6499 13.41 13.0399 19.07 13.1399 23.91C13.1699 25.33 14.6999 27.87 16.2199 27.63C16.6399 27.56 18.8199 26.15 19.5899 25.84C28.0599 22.44 35.8599 24.92 43.5999 28.73C44.2399 26.49 47.0899 19.46 50.1199 22.96L55.6299 32.13C59.5999 31.44 63.3499 31.26 67.2899 32.29L75.3199 22.83C79.1199 20.46 79.4799 26 79.9399 28.51C80.6599 32.41 81.0599 36.23 81.1099 40.2C81.1099 40.56 80.9699 41.15 81.3299 41.38L81.3299 41.81L80.8699 46.6C79.4999 56.61 72.6899 63.17 62.4799 63.48L60.1099 94.45C59.3499 98.28 60.0899 104.46 55.1799 105.49L54.5399 105.49C49.4499 104.29 48.8199 97.9 48.1399 93.56C47.1299 87.12 46.7099 80.55 45.7199 74.11C45.6499 73.69 45.5499 72.37 45.1999 72.28L43.8499 72.5C43.4899 73.86 43.1299 75.25 42.9699 76.65C42.1899 83.18 42.6599 90.22 42.3299 96.81C42.2299 98.87 41.9699 102.71 40.5099 104.2C39.7599 104.97 38.9599 105.07 38.0399 105.48L36.9699 105.48C31.4099 104.07 31.0499 97.43 30.5399 92.72C29.8199 86.08 29.9299 78.4 28.7999 71.95C28.3399 69.31 25.0999 65.31 22.7599 64.06C20.1099 62.64 20.0099 63.95 19.6299 66.38C17.9599 77.21 18.2799 89.06 16.5399 99.74C16.1199 102.31 15.3099 104.77 12.5299 105.48L11.4599 105.48C8.00988 104.54 6.76988 100.92 5.94988 97.81C3.09988 87 2.47988 73.08 2.22988 61.86C2.04988 53.81 1.56988 45.5 5.63988 38.3C0.169885 33.24 -1.01011 25.16 0.769885 18.18C2.98989 9.51 10.4699 3.22 18.9299 0.96L24.5099 0L27.5099 0ZM38.8699 8.36C29.2199 1.33 13.5399 4.11 7.18988 14.3C3.79989 19.74 3.13988 28.24 7.18988 33.52C8.09989 34.7 10.7599 36.38 10.8099 37.63C10.8599 38.75 8.28988 42.74 7.72988 44.43C6.55988 47.98 6.73988 50.34 6.72988 53.92C6.70988 65.1 6.84988 76.7 8.46988 87.77C9.07988 91.94 9.79988 96.86 11.7599 100.56C11.9599 99.97 12.1799 99.34 12.2699 98.72C13.0699 93.55 13.0699 87.55 13.5799 82.23C14.0499 77.31 14.4499 72.1 15.0799 67.22C15.7599 61.92 17.5699 56.99 24.0199 59.78C28.9799 61.93 32.6399 67.79 33.2999 73.01C34.2399 80.43 34.1099 88.35 35.2599 95.71C35.5499 97.56 35.8799 99.62 37.2699 100.99C38.2699 96.48 37.8199 91.75 38.0099 87.15C38.1799 83.14 38.1099 72.49 40.5999 69.58C42.3299 67.56 47.2599 67.18 48.9599 69.36C50.1899 70.94 50.3999 77.28 50.7099 79.62C51.5599 86 52.2399 92.47 53.6699 98.74L54.7499 100.77L55.6099 95.52L57.9799 63.6C56.4699 63.12 54.9099 62.88 53.4099 62.34C40.9199 57.9 40.7299 44.23 42.2799 33.05C38.7599 31.42 35.0399 29.5 31.1699 28.83C27.2999 28.16 22.6099 28.97 19.2999 30.92C17.9099 31.74 17.8799 32.64 15.8799 32.33C12.8299 31.85 9.24988 28.51 8.87988 25.39C7.94988 17.46 15.6199 9.07002 22.9599 7.14002C26.1899 6.29002 29.8199 6.46002 33.1199 6.93002C35.0999 7.21002 36.9699 7.79 38.8699 8.36ZM75.7499 29.37C74.0699 30.45 70.4999 36.42 68.9499 36.82C67.6099 37.17 64.9199 36.21 63.3999 36.04C62.0399 35.89 60.5199 35.86 59.1599 36.04C57.1899 36.29 54.5599 37.87 53.0199 36.13L48.2999 28.62C45.8299 35.09 44.9299 43.88 47.2299 50.49C49.8099 57.92 57.4099 60.16 64.6499 58.9C79.1199 56.37 77.3899 40.42 75.7499 29.37Z" fill="rgb(241,90,36)" fill-rule="nonzero" />
	<path id="path" d="M55.1099 41.86C60.0999 40.83 60.7499 48.33 55.9199 48.34C51.8999 48.34 51.7799 42.55 55.1099 41.86Z" fill="rgb(241,90,36)" fill-rule="nonzero" />
	<path id="path" d="M66.2599 41.86C71.5199 41.01 71.4999 49.06 66.2199 48.22C62.9799 47.71 62.7999 42.42 66.2599 41.86Z" fill="rgb(241,90,36)" fill-rule="nonzero" />
</svg>
