<svg viewBox="0 0 39.2004 41.2358" xmlns="http://www.w3.org/2000/svg" xmlns:xlink="http://www.w3.org/1999/xlink" width="39.200378" height="41.235794" fill="none" customFrame="#000000">
	<g id="g">
		<path id="path" d="M39.1602 17.97C39.1602 17.97 39.1602 17.8597 39.1602 17.8106C39.1113 16.3637 38.8788 14.9291 38.8176 13.4944C38.7198 11.1156 38.3038 8.74908 37.8755 6.40705C37.4228 3.93015 37.068 -1.56318 33.3118 0.791102L25.3833 10.1469C21.4802 9.1292 17.7852 9.30086 13.8699 9.98753L8.42518 0.913721C6.18612 -1.67354 3.996 1.85789 3.09059 3.79527C1.76918 6.61551 0.790358 9.50932 0.386591 12.6238C0.0684707 15.064 -0.0294046 17.6022 0.0072998 20.0668C0.0440042 22.5315 0.288716 25.1432 0.912709 27.6079C1.98941 31.9118 4.33859 35.7866 8.14377 38.1899C9.25719 38.8888 10.4562 39.4529 11.692 39.8943C14.188 40.7772 16.6718 41.2922 19.3146 41.2309C22.2511 41.1573 25.3099 40.63 28.0261 39.4774C32.0271 37.7853 35.1838 34.6094 37.0068 30.6611C38.2181 28.0248 38.8299 25.131 39.0746 22.2372C39.197 20.8271 39.1969 19.3924 39.1602 17.97ZM22.7772 36.4732C15.6318 37.724 8.13152 35.5046 5.57435 28.1474C3.31083 21.5996 4.19177 12.9059 6.63883 6.50515L11.3005 13.9359C12.8176 15.6648 15.4238 14.1075 17.3569 13.85C18.7028 13.6784 20.1955 13.7029 21.5414 13.85C23.0463 14.0094 25.7014 14.9659 27.0228 14.6225C28.5522 14.2179 32.076 8.31991 33.74 7.25312C35.3673 18.1785 37.068 33.9718 22.7772 36.4732Z" fill="rgb(241,90,36)" fill-rule="nonzero" />
		<path id="path" d="M13.356 19.6131C18.2868 18.5954 18.9353 26.0138 14.1513 26.0261C10.1871 26.0261 10.0647 20.2998 13.356 19.6131Z" fill="rgb(241,90,36)" fill-rule="nonzero" />
		<path id="path" d="M24.3678 19.6131C29.5555 18.767 29.5433 26.7373 24.3311 25.9157C21.1254 25.413 20.9541 20.1772 24.3678 19.6131Z" fill="rgb(241,90,36)" fill-rule="nonzero" />
	</g>
</svg>
