<svg viewBox="0 0 210.257 104.908" xmlns="http://www.w3.org/2000/svg" xmlns:xlink="http://www.w3.org/1999/xlink" width="210.256897" height="104.908234" fill="none" customFrame="#000000">
	<path id="Logo" d="M131.171 18.8106L131.171 18.97C131.184 19.4735 131.193 19.9785 131.193 20.4834C131.193 21.405 131.165 22.3262 131.086 23.2372C130.841 26.131 130.229 29.0248 129.018 31.6611C128.505 32.7711 127.887 33.8201 127.175 34.7922C132.895 38.4372 136.465 44.2872 137.387 51.3537L120.894 51.3537C119.841 46.5103 116.905 43.3467 112.072 43.3467C104.719 43.3467 101.036 49.4531 101.036 59.2504C101.036 69.0477 104.719 74.9334 112.072 74.9334C117.431 74.9334 120.686 71.7698 121.42 65.6634L137.815 65.6634C137.399 78.0847 127.513 87.7716 112.28 87.7716C94.9426 87.7716 83.6983 75.4606 83.6983 59.2504C83.6983 48.9118 88.2204 40.1619 95.906 35.1748C94.5026 33.2342 93.5189 30.9866 92.9238 28.6079C92.2998 26.1432 92.0551 23.5315 92.0184 21.0668C92.0136 20.7442 92.0111 20.4203 92.0111 20.0955C92.0111 17.9393 92.1212 15.7445 92.3977 13.6238C92.8014 10.5093 93.7802 7.61551 95.1017 4.79527C96.0071 2.85789 98.1972 -0.67354 100.436 1.91372L105.881 10.9875C109.796 10.3009 113.491 10.1292 117.394 11.1469L125.323 1.7911C128.666 -0.304394 129.315 3.81729 129.736 6.49536C129.788 6.82608 129.837 7.13479 129.887 7.40705C130.315 9.74908 130.731 12.1156 130.829 14.4944C130.89 15.9291 131.122 17.3637 131.171 18.8106ZM97.5854 29.1474C98.1194 30.6836 98.8688 31.9957 99.7855 33.0991C103.341 31.5613 107.395 30.7169 111.852 30.7169C116.13 30.7169 119.958 31.449 123.271 32.7884C125.98 29.3938 126.81 24.651 126.81 19.7467C126.81 15.8155 126.276 11.7806 125.751 8.25313C124.087 9.31991 120.563 15.2179 119.034 15.6225C118.174 15.846 116.749 15.5188 115.444 15.2192C114.744 15.0585 114.078 14.9057 113.552 14.85C112.207 14.7029 110.714 14.6784 109.368 14.85C108.844 14.9199 108.27 15.0852 107.682 15.2548C106.102 15.7104 104.417 16.196 103.312 14.9359L98.6499 7.50515C97.1819 11.345 96.2775 16.01 96.2775 20.5419C96.2775 23.5643 96.6798 26.5276 97.5854 29.1474ZM1 10.8159L18.3374 10.8159L18.3374 86.104L1 86.104L1 10.8159ZM105.367 20.6131C108.015 20.0666 109.428 21.9528 109.428 23.8184C109.428 25.427 108.377 27.0204 106.162 27.0261C104.055 27.0261 103.033 25.4074 103.033 23.788C103.033 22.3616 103.826 20.9347 105.367 20.6131ZM116.379 20.6131C118.967 20.1911 120.26 21.9628 120.26 23.7426C120.26 25.5309 118.954 27.3275 116.342 26.9157C114.723 26.6618 113.878 25.2005 113.878 23.7435C113.878 22.3158 114.689 20.8923 116.379 20.6131ZM144.018 90.5305L149.904 90.5305C154.944 90.5305 156.939 88.5318 156.939 84.841C156.939 82.5235 155.887 79.3722 153.684 73.6826L137.815 32.2006L155.887 32.2006L163.13 55.1549C164.806 60.4153 166.495 67.5762 166.495 67.5762L166.703 67.5762C166.703 67.5762 168.171 60.4153 169.859 55.1549L176.895 32.2006L194.024 32.2006L175.426 86.8519C171.119 99.4939 165.968 103.908 155.152 103.908L144.018 103.908L144.018 90.5305ZM26.2169 67.5762L26.2169 32.2006L43.2362 32.2006L43.2362 63.9957C43.2362 69.8937 45.8668 73.1554 51.3238 73.1554C57.2089 73.1554 60.7816 68.7288 60.7816 62.3159L60.7816 32.2006L77.911 32.2006L77.911 86.1162L61.5158 86.1162L61.5158 79.4825L61.1976 79.4825C57.3068 84.7429 52.584 87.698 45.1205 87.698C32.7261 87.698 26.2169 79.5806 26.2169 67.5762ZM191.296 68.4223L209.257 68.4223L209.257 86.1162L191.296 86.1162L191.296 68.4223Z" fill="rgb(241,90,36)" fill-rule="evenodd" />
</svg>
